<svg width="153" height="48" viewBox="0 0 153 48" fill="none" xmlns="http://www.w3.org/2000/svg">
<path d="M74.639 17.572C74.911 18.2747 75.302 18.6373 75.812 18.66V19C75.3587 18.966 74.7523 18.949 73.993 18.949C73.0183 18.949 72.293 18.966 71.817 19V18.66C72.2477 18.6373 72.5537 18.5863 72.735 18.507C72.9277 18.4163 73.024 18.2577 73.024 18.031C73.024 17.8383 72.956 17.572 72.82 17.232L71.783 14.444H67.669L66.972 16.246C66.7453 16.858 66.632 17.3227 66.632 17.64C66.632 17.9913 66.751 18.2463 66.989 18.405C67.2383 18.5637 67.6123 18.6487 68.111 18.66V19C67.465 18.966 66.8133 18.949 66.156 18.949C65.646 18.949 65.221 18.966 64.881 19V18.66C65.4477 18.524 65.8953 18.031 66.224 17.181L70.219 6.879H70.491L74.639 17.572ZM71.647 14.104L69.743 9.021L67.805 14.104H71.647ZM89.257 17.419C89.257 17.8837 89.3533 18.2067 89.546 18.388C89.7387 18.558 90.073 18.643 90.549 18.643V19C89.5063 18.9547 88.8263 18.932 88.509 18.932C88.1917 18.932 87.557 18.9547 86.605 19V18.643C87.0243 18.643 87.3133 18.558 87.472 18.388C87.642 18.2067 87.727 17.8837 87.727 17.419V12.506C87.727 12.0753 87.6987 11.7297 87.642 11.469C87.5967 11.197 87.4777 10.976 87.285 10.806C87.1037 10.636 86.8203 10.551 86.435 10.551C86.0043 10.551 85.6133 10.687 85.262 10.959C84.9107 11.231 84.633 11.605 84.429 12.081C84.2363 12.5457 84.14 13.0613 84.14 13.628V17.419C84.14 17.8837 84.2363 18.2067 84.429 18.388C84.6217 18.558 84.956 18.643 85.432 18.643V19C84.3893 18.9547 83.7093 18.932 83.392 18.932C83.0747 18.932 82.44 18.9547 81.488 19V18.643C81.9073 18.643 82.1963 18.558 82.355 18.388C82.525 18.2067 82.61 17.8837 82.61 17.419V12.506C82.61 12.0753 82.5817 11.7297 82.525 11.469C82.4797 11.197 82.3607 10.976 82.168 10.806C81.9867 10.636 81.7033 10.551 81.318 10.551C80.8873 10.551 80.4963 10.687 80.145 10.959C79.7937 11.231 79.516 11.605 79.312 12.081C79.1193 12.557 79.023 13.0783 79.023 13.645V17.419C79.023 17.8837 79.1023 18.2067 79.261 18.388C79.431 18.558 79.7257 18.643 80.145 18.643V19C79.193 18.9547 78.5583 18.932 78.241 18.932C77.9237 18.932 77.2437 18.9547 76.201 19V18.643C76.677 18.643 77.0113 18.558 77.204 18.388C77.3967 18.2067 77.493 17.8837 77.493 17.419V12.098C77.493 11.5767 77.3967 11.197 77.204 10.959C77.0113 10.721 76.677 10.602 76.201 10.602V10.245C76.5637 10.279 76.915 10.296 77.255 10.296C77.969 10.296 78.5583 10.2167 79.023 10.058V12.064C79.295 11.3613 79.6803 10.8457 80.179 10.517C80.6777 10.177 81.2217 10.007 81.811 10.007C82.5817 10.007 83.171 10.2223 83.579 10.653C83.8623 10.9477 84.038 11.401 84.106 12.013C84.3893 11.299 84.7803 10.789 85.279 10.483C85.7777 10.1657 86.3273 10.007 86.928 10.007C87.6987 10.007 88.288 10.2223 88.696 10.653C88.9 10.8797 89.0417 11.1687 89.121 11.52C89.2117 11.8713 89.257 12.3247 89.257 12.88V17.419ZM93.5698 19.119C92.8558 19.119 92.3232 18.9433 91.9718 18.592C91.6318 18.2293 91.4618 17.7307 91.4618 17.096C91.4618 16.586 91.5978 16.1667 91.8698 15.838C92.1532 15.5093 92.4818 15.2487 92.8558 15.056C93.2412 14.8633 93.7455 14.6593 94.3688 14.444C95.0035 14.2287 95.4738 14.0303 95.7798 13.849C96.0858 13.6677 96.2388 13.424 96.2388 13.118V12.064C96.2388 11.4067 96.0972 10.959 95.8138 10.721C95.5418 10.4717 95.1565 10.347 94.6578 10.347C93.8645 10.347 93.3035 10.551 92.9748 10.959C93.2015 11.0157 93.3885 11.1347 93.5358 11.316C93.6945 11.4973 93.7738 11.724 93.7738 11.996C93.7738 12.2793 93.6832 12.506 93.5018 12.676C93.3205 12.8347 93.0882 12.914 92.8048 12.914C92.4875 12.914 92.2495 12.8177 92.0908 12.625C91.9322 12.421 91.8528 12.1773 91.8528 11.894C91.8528 11.622 91.9152 11.3953 92.0398 11.214C92.1758 11.0327 92.3742 10.8513 92.6348 10.67C92.9068 10.4773 93.2525 10.3187 93.6718 10.194C94.0912 10.0693 94.5502 10.007 95.0488 10.007C95.9328 10.007 96.6015 10.2167 97.0548 10.636C97.3382 10.8967 97.5252 11.214 97.6158 11.588C97.7178 11.9507 97.7688 12.4323 97.7688 13.033V17.759C97.7688 18.0423 97.8085 18.2463 97.8878 18.371C97.9672 18.4957 98.1032 18.558 98.2958 18.558C98.4318 18.558 98.5565 18.5297 98.6698 18.473C98.7945 18.405 98.9248 18.3143 99.0608 18.201L99.2478 18.49C98.9532 18.7167 98.6982 18.881 98.4828 18.983C98.2788 19.0737 98.0182 19.119 97.7008 19.119C97.1568 19.119 96.7772 18.983 96.5618 18.711C96.3465 18.439 96.2388 18.0707 96.2388 17.606C95.8988 18.1727 95.5078 18.5693 95.0658 18.796C94.6238 19.0113 94.1252 19.119 93.5698 19.119ZM94.3178 18.439C95.0658 18.439 95.7062 18.0083 96.2388 17.147V13.815C96.1368 13.9737 95.9952 14.104 95.8138 14.206C95.6325 14.308 95.3548 14.444 94.9808 14.614C94.5502 14.7953 94.1988 14.971 93.9268 15.141C93.6662 15.2997 93.4395 15.5207 93.2468 15.804C93.0542 16.0873 92.9578 16.45 92.9578 16.892C92.9578 17.402 93.0825 17.7873 93.3318 18.048C93.5812 18.3087 93.9098 18.439 94.3178 18.439ZM102.802 10.007C103.21 10.007 103.572 10.0693 103.89 10.194C104.207 10.3187 104.462 10.466 104.655 10.636C104.779 10.7267 104.881 10.772 104.961 10.772C105.165 10.772 105.289 10.5227 105.335 10.024H105.726C105.68 10.5793 105.658 11.5427 105.658 12.914H105.267C105.142 12.166 104.898 11.5483 104.536 11.061C104.184 10.5737 103.657 10.33 102.955 10.33C102.547 10.33 102.212 10.449 101.952 10.687C101.691 10.9137 101.561 11.231 101.561 11.639C101.561 12.0357 101.697 12.37 101.969 12.642C102.241 12.9027 102.677 13.22 103.278 13.594C103.38 13.6507 103.533 13.747 103.737 13.883C104.258 14.223 104.677 14.5233 104.995 14.784C105.312 15.0447 105.567 15.345 105.76 15.685C105.964 16.025 106.066 16.416 106.066 16.858C106.066 17.606 105.782 18.1897 105.216 18.609C104.66 19.0283 103.975 19.238 103.159 19.238C102.649 19.238 102.201 19.1587 101.816 19C101.566 18.8753 101.334 18.7223 101.119 18.541C101.073 18.4957 101.022 18.473 100.966 18.473C100.886 18.473 100.813 18.5297 100.745 18.643C100.688 18.7563 100.643 18.915 100.609 19.119H100.218C100.263 18.473 100.286 17.3397 100.286 15.719H100.677C100.801 16.7843 101.028 17.5833 101.357 18.116C101.685 18.6373 102.246 18.898 103.04 18.898C103.436 18.898 103.788 18.7677 104.094 18.507C104.4 18.2463 104.553 17.8383 104.553 17.283C104.553 16.841 104.4 16.467 104.094 16.161C103.799 15.855 103.312 15.4867 102.632 15.056C102.076 14.7047 101.646 14.4157 101.34 14.189C101.045 13.9623 100.796 13.6847 100.592 13.356C100.388 13.0273 100.286 12.642 100.286 12.2C100.286 11.486 100.524 10.942 101 10.568C101.476 10.194 102.076 10.007 102.802 10.007ZM109.3 5.995C109.595 5.995 109.85 6.10267 110.065 6.318C110.28 6.53333 110.388 6.78833 110.388 7.083C110.388 7.37767 110.28 7.63267 110.065 7.848C109.85 8.06333 109.595 8.171 109.3 8.171C109.005 8.171 108.75 8.06333 108.535 7.848C108.32 7.63267 108.212 7.37767 108.212 7.083C108.212 6.78833 108.32 6.53333 108.535 6.318C108.75 6.10267 109.005 5.995 109.3 5.995ZM110.184 17.419C110.184 17.8837 110.28 18.2067 110.473 18.388C110.666 18.558 111 18.643 111.476 18.643V19C110.433 18.9547 109.748 18.932 109.419 18.932C109.09 18.932 108.405 18.9547 107.362 19V18.643C107.838 18.643 108.172 18.558 108.365 18.388C108.558 18.2067 108.654 17.8837 108.654 17.419V12.098C108.654 11.5767 108.558 11.197 108.365 10.959C108.172 10.721 107.838 10.602 107.362 10.602V10.245C107.725 10.279 108.076 10.296 108.416 10.296C109.13 10.296 109.719 10.2167 110.184 10.058V17.419ZM118.055 10.007C118.848 10.007 119.449 10.2223 119.857 10.653C120.072 10.8797 120.225 11.163 120.316 11.503C120.406 11.843 120.452 12.302 120.452 12.88V17.419C120.452 17.8837 120.548 18.2067 120.741 18.388C120.933 18.558 121.268 18.643 121.744 18.643V19C120.701 18.9547 120.021 18.932 119.704 18.932C119.386 18.932 118.752 18.9547 117.8 19V18.643C118.219 18.643 118.508 18.558 118.667 18.388C118.837 18.2067 118.922 17.8837 118.922 17.419V12.506C118.922 11.8713 118.831 11.3897 118.65 11.061C118.468 10.721 118.1 10.551 117.545 10.551C117.08 10.551 116.666 10.687 116.304 10.959C115.941 11.231 115.658 11.605 115.454 12.081C115.261 12.5457 115.165 13.067 115.165 13.645V17.419C115.165 17.8837 115.244 18.2067 115.403 18.388C115.573 18.558 115.867 18.643 116.287 18.643V19C115.335 18.9547 114.7 18.932 114.383 18.932C114.065 18.932 113.385 18.9547 112.343 19V18.643C112.819 18.643 113.153 18.558 113.346 18.388C113.538 18.2067 113.635 17.8837 113.635 17.419V12.098C113.635 11.5767 113.538 11.197 113.346 10.959C113.153 10.721 112.819 10.602 112.343 10.602V10.245C112.705 10.279 113.057 10.296 113.397 10.296C114.111 10.296 114.7 10.2167 115.165 10.058V12.064C115.448 11.3387 115.839 10.8173 116.338 10.5C116.848 10.1713 117.42 10.007 118.055 10.007ZM129.834 11.775C129.63 11.775 129.454 11.707 129.307 11.571C129.171 11.435 129.103 11.2367 129.103 10.976C129.103 10.7493 129.16 10.4887 129.273 10.194C128.978 10.3187 128.746 10.4603 128.576 10.619C128.406 10.7663 128.253 10.9533 128.117 11.18C128.378 11.5767 128.508 12.081 128.508 12.693C128.508 13.5883 128.236 14.2627 127.692 14.716C127.148 15.158 126.428 15.379 125.533 15.379H125.516C125.142 15.5943 124.859 15.7927 124.666 15.974C124.473 16.1553 124.377 16.3593 124.377 16.586C124.377 16.9487 124.649 17.13 125.193 17.13H127.318C128.089 17.13 128.723 17.3 129.222 17.64C129.732 17.9687 129.987 18.4673 129.987 19.136C129.987 19.68 129.811 20.1843 129.46 20.649C129.109 21.1137 128.593 21.4877 127.913 21.771C127.233 22.0543 126.411 22.196 125.448 22.196C124.462 22.196 123.635 22.043 122.966 21.737C122.309 21.4423 121.98 21.0003 121.98 20.411C121.98 20.0257 122.133 19.6913 122.439 19.408C122.756 19.1247 123.193 18.9037 123.748 18.745L123.85 19.017C123.601 19.0963 123.402 19.255 123.255 19.493C123.108 19.731 123.034 19.9973 123.034 20.292C123.034 20.8133 123.266 21.21 123.731 21.482C124.207 21.7653 124.842 21.907 125.635 21.907C126.508 21.907 127.256 21.737 127.879 21.397C128.502 21.0683 128.814 20.5527 128.814 19.85C128.814 19.442 128.667 19.1247 128.372 18.898C128.089 18.6713 127.579 18.558 126.842 18.558H125.584C124.915 18.558 124.377 18.473 123.969 18.303C123.572 18.133 123.374 17.793 123.374 17.283C123.374 16.9317 123.499 16.5973 123.748 16.28C124.009 15.9627 124.434 15.651 125.023 15.345C124.275 15.2657 123.674 15.005 123.221 14.563C122.779 14.121 122.558 13.4977 122.558 12.693C122.558 11.7977 122.83 11.129 123.374 10.687C123.918 10.2337 124.638 10.007 125.533 10.007C126.598 10.007 127.386 10.3017 127.896 10.891C128.111 10.585 128.383 10.3357 128.712 10.143C129.041 9.939 129.369 9.837 129.698 9.837C129.993 9.837 130.231 9.922 130.412 10.092C130.593 10.262 130.684 10.5057 130.684 10.823C130.684 11.1403 130.593 11.3783 130.412 11.537C130.242 11.6957 130.049 11.775 129.834 11.775ZM125.533 15.073C125.986 15.073 126.326 14.8973 126.553 14.546C126.791 14.1833 126.91 13.5657 126.91 12.693C126.91 11.8203 126.791 11.2083 126.553 10.857C126.326 10.4943 125.986 10.313 125.533 10.313C125.08 10.313 124.734 10.4943 124.496 10.857C124.269 11.2083 124.156 11.8203 124.156 12.693C124.156 13.5657 124.269 14.1833 124.496 14.546C124.734 14.8973 125.08 15.073 125.533 15.073ZM70.049 30.304C69.641 30.3267 69.3407 30.372 69.148 30.44C68.9667 30.508 68.842 30.6383 68.774 30.831C68.706 31.0237 68.672 31.3353 68.672 31.766V40.198C68.672 40.6287 68.706 40.9403 68.774 41.133C68.842 41.3257 68.9667 41.456 69.148 41.524C69.3407 41.592 69.641 41.6373 70.049 41.66V42C69.5277 41.966 68.808 41.949 67.89 41.949C66.9153 41.949 66.19 41.966 65.714 42V41.66C66.122 41.6373 66.4167 41.592 66.598 41.524C66.7907 41.456 66.921 41.3257 66.989 41.133C67.057 40.9403 67.091 40.6287 67.091 40.198V31.766C67.091 31.3353 67.057 31.0237 66.989 30.831C66.921 30.6383 66.7907 30.508 66.598 30.44C66.4167 30.372 66.122 30.3267 65.714 30.304V29.964C66.19 29.998 66.9153 30.015 67.89 30.015C68.7967 30.015 69.5163 29.998 70.049 29.964V30.304ZM74.2137 33.007C74.6217 33.007 74.9844 33.0693 75.3017 33.194C75.6191 33.3187 75.8741 33.466 76.0667 33.636C76.1914 33.7267 76.2934 33.772 76.3727 33.772C76.5767 33.772 76.7014 33.5227 76.7467 33.024H77.1377C77.0924 33.5793 77.0697 34.5427 77.0697 35.914H76.6787C76.5541 35.166 76.3104 34.5483 75.9477 34.061C75.5964 33.5737 75.0694 33.33 74.3667 33.33C73.9587 33.33 73.6244 33.449 73.3637 33.687C73.1031 33.9137 72.9727 34.231 72.9727 34.639C72.9727 35.0357 73.1087 35.37 73.3807 35.642C73.6527 35.9027 74.0891 36.22 74.6897 36.594C74.7917 36.6507 74.9447 36.747 75.1487 36.883C75.6701 37.223 76.0894 37.5233 76.4067 37.784C76.7241 38.0447 76.9791 38.345 77.1717 38.685C77.3757 39.025 77.4777 39.416 77.4777 39.858C77.4777 40.606 77.1944 41.1897 76.6277 41.609C76.0724 42.0283 75.3867 42.238 74.5707 42.238C74.0607 42.238 73.6131 42.1587 73.2277 42C72.9784 41.8753 72.7461 41.7223 72.5307 41.541C72.4854 41.4957 72.4344 41.473 72.3777 41.473C72.2984 41.473 72.2247 41.5297 72.1567 41.643C72.1001 41.7563 72.0547 41.915 72.0207 42.119H71.6297C71.6751 41.473 71.6977 40.3397 71.6977 38.719H72.0887C72.2134 39.7843 72.4401 40.5833 72.7687 41.116C73.0974 41.6373 73.6584 41.898 74.4517 41.898C74.8484 41.898 75.1997 41.7677 75.5057 41.507C75.8117 41.2463 75.9647 40.8383 75.9647 40.283C75.9647 39.841 75.8117 39.467 75.5057 39.161C75.2111 38.855 74.7237 38.4867 74.0437 38.056C73.4884 37.7047 73.0577 37.4157 72.7517 37.189C72.4571 36.9623 72.2077 36.6847 72.0037 36.356C71.7997 36.0273 71.6977 35.642 71.6977 35.2C71.6977 34.486 71.9357 33.942 72.4117 33.568C72.8877 33.194 73.4884 33.007 74.2137 33.007ZM81.4773 40.419C81.4773 40.8837 81.5736 41.2067 81.7663 41.388C81.9589 41.558 82.2933 41.643 82.7692 41.643V42C81.7266 41.9547 81.0409 41.932 80.7123 41.932C80.3836 41.932 79.6979 41.9547 78.6553 42V41.643C79.1313 41.643 79.4656 41.558 79.6583 41.388C79.8509 41.2067 79.9473 40.8837 79.9473 40.419V30.712C79.9473 30.1907 79.8509 29.811 79.6583 29.573C79.4656 29.335 79.1313 29.216 78.6553 29.216V28.859C79.0066 28.893 79.3579 28.91 79.7093 28.91C80.4233 28.91 81.0126 28.8307 81.4773 28.672V40.419ZM85.9165 42.119C85.2025 42.119 84.6698 41.9433 84.3185 41.592C83.9785 41.2293 83.8085 40.7307 83.8085 40.096C83.8085 39.586 83.9445 39.1667 84.2165 38.838C84.4998 38.5093 84.8285 38.2487 85.2025 38.056C85.5878 37.8633 86.0922 37.6593 86.7155 37.444C87.3502 37.2287 87.8205 37.0303 88.1265 36.849C88.4325 36.6677 88.5855 36.424 88.5855 36.118V35.064C88.5855 34.4067 88.4438 33.959 88.1605 33.721C87.8885 33.4717 87.5032 33.347 87.0045 33.347C86.2112 33.347 85.6502 33.551 85.3215 33.959C85.5482 34.0157 85.7352 34.1347 85.8825 34.316C86.0412 34.4973 86.1205 34.724 86.1205 34.996C86.1205 35.2793 86.0298 35.506 85.8485 35.676C85.6672 35.8347 85.4348 35.914 85.1515 35.914C84.8342 35.914 84.5962 35.8177 84.4375 35.625C84.2788 35.421 84.1995 35.1773 84.1995 34.894C84.1995 34.622 84.2618 34.3953 84.3865 34.214C84.5225 34.0327 84.7208 33.8513 84.9815 33.67C85.2535 33.4773 85.5992 33.3187 86.0185 33.194C86.4378 33.0693 86.8968 33.007 87.3955 33.007C88.2795 33.007 88.9482 33.2167 89.4015 33.636C89.6848 33.8967 89.8718 34.214 89.9625 34.588C90.0645 34.9507 90.1155 35.4323 90.1155 36.033V40.759C90.1155 41.0423 90.1552 41.2463 90.2345 41.371C90.3138 41.4957 90.4498 41.558 90.6425 41.558C90.7785 41.558 90.9032 41.5297 91.0165 41.473C91.1412 41.405 91.2715 41.3143 91.4075 41.201L91.5945 41.49C91.2998 41.7167 91.0448 41.881 90.8295 41.983C90.6255 42.0737 90.3648 42.119 90.0475 42.119C89.5035 42.119 89.1238 41.983 88.9085 41.711C88.6932 41.439 88.5855 41.0707 88.5855 40.606C88.2455 41.1727 87.8545 41.5693 87.4125 41.796C86.9705 42.0113 86.4718 42.119 85.9165 42.119ZM86.6645 41.439C87.4125 41.439 88.0528 41.0083 88.5855 40.147V36.815C88.4835 36.9737 88.3418 37.104 88.1605 37.206C87.9792 37.308 87.7015 37.444 87.3275 37.614C86.8968 37.7953 86.5455 37.971 86.2735 38.141C86.0128 38.2997 85.7862 38.5207 85.5935 38.804C85.4008 39.0873 85.3045 39.45 85.3045 39.892C85.3045 40.402 85.4292 40.7873 85.6785 41.048C85.9278 41.3087 86.2565 41.439 86.6645 41.439ZM97.8173 33.007C98.6106 33.007 99.2113 33.2223 99.6193 33.653C99.8346 33.8797 99.9876 34.163 100.078 34.503C100.169 34.843 100.214 35.302 100.214 35.88V40.419C100.214 40.8837 100.311 41.2067 100.503 41.388C100.696 41.558 101.03 41.643 101.506 41.643V42C100.464 41.9547 99.7836 41.932 99.4663 41.932C99.149 41.932 98.5143 41.9547 97.5623 42V41.643C97.9816 41.643 98.2706 41.558 98.4293 41.388C98.5993 41.2067 98.6843 40.8837 98.6843 40.419V35.506C98.6843 34.8713 98.5936 34.3897 98.4123 34.061C98.231 33.721 97.8626 33.551 97.3073 33.551C96.8426 33.551 96.429 33.687 96.0663 33.959C95.7036 34.231 95.4203 34.605 95.2163 35.081C95.0236 35.5457 94.9273 36.067 94.9273 36.645V40.419C94.9273 40.8837 95.0066 41.2067 95.1653 41.388C95.3353 41.558 95.63 41.643 96.0493 41.643V42C95.0973 41.9547 94.4626 41.932 94.1453 41.932C93.828 41.932 93.148 41.9547 92.1053 42V41.643C92.5813 41.643 92.9156 41.558 93.1083 41.388C93.301 41.2067 93.3973 40.8837 93.3973 40.419V35.098C93.3973 34.5767 93.301 34.197 93.1083 33.959C92.9156 33.721 92.5813 33.602 92.1053 33.602V33.245C92.468 33.279 92.8193 33.296 93.1593 33.296C93.8733 33.296 94.4626 33.2167 94.9273 33.058V35.064C95.2106 34.3387 95.6016 33.8173 96.1003 33.5C96.6103 33.1713 97.1826 33.007 97.8173 33.007ZM109.984 40.147C109.984 40.6683 110.08 41.048 110.273 41.286C110.466 41.524 110.8 41.643 111.276 41.643V42C110.925 41.966 110.573 41.949 110.222 41.949C109.508 41.949 108.919 42.0283 108.454 42.187V40.674C108.25 41.184 107.944 41.575 107.536 41.847C107.128 42.1077 106.629 42.238 106.04 42.238C104.952 42.238 104.096 41.847 103.473 41.065C102.861 40.283 102.561 39.1383 102.572 37.631C102.572 36.645 102.742 35.8063 103.082 35.115C103.433 34.4123 103.898 33.8853 104.476 33.534C105.065 33.1827 105.711 33.007 106.414 33.007C106.845 33.007 107.236 33.092 107.587 33.262C107.95 33.4207 108.239 33.67 108.454 34.01V30.712C108.454 30.1907 108.358 29.811 108.165 29.573C107.972 29.335 107.638 29.216 107.162 29.216V28.859C107.525 28.893 107.876 28.91 108.216 28.91C108.93 28.91 109.519 28.8307 109.984 28.672V40.147ZM106.533 41.728C106.975 41.728 107.372 41.558 107.723 41.218C108.074 40.878 108.318 40.3963 108.454 39.773V34.707C108.148 33.8343 107.513 33.398 106.55 33.398C105.847 33.398 105.281 33.7607 104.85 34.486C104.419 35.2 104.21 36.2483 104.221 37.631C104.21 38.991 104.402 40.0167 104.799 40.708C105.196 41.388 105.774 41.728 106.533 41.728Z" fill="white"/>
<path d="M45.3262 40.7695H44.2453L32.3685 20.1145C32.3676 20.1128 32.3666 20.1113 32.3657 20.1096L28.806 13.919C28.6896 13.7165 28.4598 13.5897 28.2094 13.5897C27.959 13.5897 27.7291 13.7165 27.6127 13.919L25.274 17.9865L20.6208 9.84349C20.5046 9.64021 20.2745 9.51282 20.0234 9.51282C19.7724 9.51282 19.5422 9.64021 19.4261 9.84349L13.5599 20.1092C13.5587 20.1112 13.5576 20.1131 13.5565 20.1151L1.75406 40.7695H0.674317C0.302094 40.7695 0.000488281 41.045 0.000488281 41.3847C0.000488281 41.7245 0.302094 42 0.674317 42H6.68999C7.06221 42 7.36381 41.7245 7.36381 41.3847C7.36381 41.045 7.06221 40.7695 6.68999 40.7695H3.27413L14.3277 21.4259L17.3145 24.1529C17.4409 24.2684 17.6122 24.3332 17.791 24.3332C17.9698 24.3332 18.141 24.2684 18.2675 24.1529L21.5118 21.1906L23.268 22.794C23.5311 23.0343 23.9578 23.0343 24.2209 22.794L25.7193 21.4259L25.7787 21.5297C25.7795 21.5312 25.7804 21.5327 25.7812 21.5342L29.5215 28.0796C29.6937 28.3808 30.1008 28.4976 30.4306 28.3405C30.7606 28.1833 30.8885 27.8117 30.7164 27.5104L27.2028 21.3617L27.3903 21.1906L29.1465 22.794C29.2781 22.9142 29.4506 22.9742 29.623 22.9742C29.7954 22.9742 29.9679 22.9142 30.0995 22.794L31.5997 21.4242L42.7231 40.7695H32.6044V39.2816H34.9075C35.131 39.2816 35.3401 39.1804 35.4655 39.0113C35.5908 38.8423 35.6162 38.6274 35.5332 38.4379L34.4142 35.8845H34.9075C35.1356 35.8845 35.3482 35.7791 35.4725 35.6045C35.5968 35.4299 35.6159 35.2097 35.5232 35.0194L32.5462 28.9041C32.438 28.682 32.1967 28.5387 31.9304 28.5387C31.6641 28.5387 31.4229 28.682 31.3146 28.9041L28.3379 35.0194C28.2453 35.2097 28.2644 35.4299 28.3886 35.6045C28.5129 35.7791 28.7255 35.8845 28.9536 35.8845H29.4468L28.328 38.4379C28.2449 38.6274 28.2703 38.8423 28.3956 39.0113C28.521 39.1804 28.7301 39.2816 28.9536 39.2816H31.2566V40.7695H14.7437V39.2816H17.0467C17.2703 39.2816 17.4793 39.1804 17.6047 39.0113C17.7301 38.8423 17.7554 38.6274 17.6724 38.4379L16.5535 35.8845H17.0467C17.2748 35.8845 17.4874 35.7791 17.6118 35.6045C17.736 35.4299 17.7551 35.2097 17.6624 35.0194L14.6855 28.9041C14.5773 28.682 14.336 28.5387 14.0697 28.5387C13.8034 28.5387 13.5621 28.682 13.4539 28.9041L10.4772 35.0194C10.3845 35.2097 10.4037 35.4299 10.5278 35.6045C10.6522 35.7791 10.8648 35.8845 11.0929 35.8845H11.586L10.4672 38.4379C10.3842 38.6274 10.4095 38.8423 10.5348 39.0113C10.6603 39.1804 10.8693 39.2816 11.0929 39.2816H13.396V40.7695H9.38242C9.0102 40.7695 8.7086 41.045 8.7086 41.3847C8.7086 41.7245 9.0102 42 9.38242 42H45.3262C45.6984 42 46 41.7245 46 41.3847C46 41.045 45.6984 40.7695 45.3262 40.7695ZM23.7444 21.4889L21.9881 19.8855C21.7251 19.6452 21.2984 19.6452 21.0352 19.8855L17.791 22.8478L14.9812 20.2824L20.0236 11.4583L25.066 20.2824L23.7444 21.4889ZM29.6227 21.4889L27.8664 19.8855C27.7401 19.7701 27.5688 19.7053 27.39 19.7053C27.2112 19.7053 27.04 19.7701 26.9135 19.8855L26.5491 20.2182L26.4902 20.115C26.4891 20.1131 26.488 20.1113 26.487 20.1094L26.0326 19.3143L28.2094 15.5286L30.9433 20.2832L29.6227 21.4889ZM12.0885 38.0512L13.2073 35.4977C13.2902 35.3082 13.2648 35.0934 13.1396 34.9243C13.0142 34.7552 12.8051 34.654 12.5816 34.654H12.13L14.0698 30.6688L16.0099 34.654H15.5583C15.3348 34.654 15.1257 34.7552 15.0003 34.9243C14.8749 35.0934 14.8496 35.3082 14.9326 35.4977L16.0515 38.0512H12.0885ZM29.9493 38.0512L31.0681 35.4977C31.151 35.3082 31.1257 35.0934 31.0004 34.9243C30.8749 34.7552 30.6659 34.654 30.4423 34.654H29.9908L31.9306 30.6688L33.8707 34.654H33.419C33.1955 34.654 32.9864 34.7552 32.861 34.9243C32.7357 35.0934 32.7104 35.3082 32.7934 35.4977L33.9123 38.0512H29.9493Z" fill="white"/>
<path d="M26.7211 0C24.2976 0 22.3262 1.80009 22.3262 4.0128C22.3262 6.22543 24.2977 8.02553 26.7211 8.02553C29.1445 8.02553 31.116 6.22543 31.116 4.0128C31.1159 1.80009 29.1444 0 26.7211 0ZM26.7211 6.79506C25.0408 6.79506 23.6738 5.54695 23.6738 4.0128C23.6738 2.47857 25.0407 1.23047 26.7211 1.23047C28.4013 1.23047 29.7684 2.47857 29.7684 4.0128C29.7683 5.54695 28.4012 6.79506 26.7211 6.79506Z" fill="white"/>
<path d="M18.5348 7.47447H16.1687C15.8516 5.9295 14.3641 4.75645 12.5814 4.75645C12.0353 4.75645 11.5037 4.86621 11.0178 5.07703C10.2198 4.43645 9.18901 4.0769 8.116 4.0769C5.92166 4.0769 4.09783 5.55281 3.7726 7.47447H2.1626C1.79038 7.47447 1.48877 7.74993 1.48877 8.08971C1.48877 8.42948 1.79038 8.70494 2.1626 8.70494H6.62765C6.99988 8.70494 7.30148 8.42948 7.30148 8.08971C7.30148 7.74993 6.99988 7.47447 6.62765 7.47447H5.1446C5.45232 6.23547 6.66727 5.30737 8.116 5.30737C8.98902 5.30737 9.82178 5.65092 10.4009 6.24999C10.6256 6.48255 11.0049 6.52603 11.2859 6.35114C11.6685 6.11284 12.1165 5.98692 12.5814 5.98692C13.617 5.98692 14.4948 6.61429 14.7837 7.47447H14.0696C13.6974 7.47447 13.3958 7.74993 13.3958 8.08971C13.3958 8.42948 13.6974 8.70494 14.0696 8.70494H18.5348C18.907 8.70494 19.2087 8.42948 19.2087 8.08971C19.2087 7.74993 18.907 7.47447 18.5348 7.47447Z" fill="white"/>
<path d="M44.5817 10.1926H42.2156C41.8984 8.64764 40.411 7.47459 38.6283 7.47459C38.0821 7.47459 37.5504 7.58435 37.0647 7.79517C36.2667 7.15459 35.236 6.79504 34.163 6.79504C31.9685 6.79504 30.1448 8.27095 29.8196 10.1925H28.2095C27.8372 10.1925 27.5356 10.468 27.5356 10.8078C27.5356 11.1475 27.8372 11.423 28.2095 11.423H32.6744C33.0467 11.423 33.3483 11.1475 33.3483 10.8078C33.3483 10.468 33.0467 10.1925 32.6744 10.1925H31.1916C31.4992 8.95353 32.7141 8.02551 34.1629 8.02551C35.0359 8.02551 35.8687 8.36906 36.4478 8.96813C36.6727 9.20069 37.0519 9.24417 37.3327 9.06928C37.7153 8.83098 38.1634 8.70506 38.6283 8.70506C39.6638 8.70506 40.5417 9.33235 40.8305 10.1926H40.1166C39.7443 10.1926 39.4427 10.4681 39.4427 10.8079C39.4427 11.1476 39.7443 11.4231 40.1166 11.4231H44.5817C44.9539 11.4231 45.2555 11.1476 45.2555 10.8079C45.2555 10.4681 44.9539 10.1926 44.5817 10.1926Z" fill="white"/>
</svg>
